# xmcd
#
# Track frame offsets: 
#        150
#        23035
#        43390
#        60748
#        81638
#        99790
#        118345
#        130608
#        149600
#        162540
#        183908
#        204110
#
# Disc length: 2979 seconds
#
# Revision: 7
# Processed by: cddbd v1.5.2PL0 Copyright (c) Steve Scherf et al.
# Submitted via: ExactAudioCopy v1.0b3
#
DISCID=aa0ba10c
DTITLE=Joe Cocker - Joe Cocker's Greatest Hits
DYEAR=1977
DGENRE=Rock
TTITLE0=With A Little Help From My Friends
TTITLE1=Woman To Woman
TTITLE2=The Jealous Kind
TTITLE3=Black-Eyed Blues
TTITLE4=I Think It's Going To Rain
TTITLE5=Cry Me A River
TTITLE6=You Are So Beautiful
TTITLE7=Feeling Alright
TTITLE8=Delta Lady
TTITLE9=Darling Be Home Soon
TTITLE10=High Time We Went
TTITLE11=The Letter
EXTD=YEAR: 1987 ID3G: 17
EXTT0=
EXTT1=
EXTT2=
EXTT3=
EXTT4=
EXTT5=
EXTT6=
EXTT7=
EXTT8=
EXTT9=
EXTT10=
EXTT11=
PLAYORDER=
